<svg width="508" height="339" fill="none" xmlns="http://www.w3.org/2000/svg"><path d="M508 0H0v339h508V0z" fill="#0A0A0A"/><path fill-rule="evenodd" clip-rule="evenodd" d="M254.808 44l-.006.006-.005-.005-2.554 2.563L134.6 164.208l15.556 15.556L254.981 74.939l104.858 104.858 15.404-15.404-50.643-50.621v-50.77h-18V95.78l-36.238-36.221.002-.003L254.808 44zm18.792 97h-37v64h37v-64zM90.2 272.498c2.6.733 5.283 1.1 8.05 1.1 3.2 0 5.917-.483 8.15-1.45 2.233-.967 3.9-2.267 5-3.9 1.133-1.667 1.7-3.5 1.7-5.5 0-2.333-.617-4.183-1.85-5.55a10.647 10.647 0 00-4.35-3c-1.7-.633-3.883-1.267-6.55-1.9-2.567-.567-4.483-1.133-5.75-1.7-1.233-.6-1.85-1.5-1.85-2.7 0-1.2.533-2.167 1.6-2.9 1.1-.733 2.783-1.1 5.05-1.1 3.233 0 6.467.917 9.7 2.75l2.5-6.15c-1.6-1-3.467-1.767-5.6-2.3a26.92 26.92 0 00-6.55-.8c-3.2 0-5.917.483-8.15 1.45-2.2.967-3.85 2.283-4.95 3.95-1.1 1.633-1.65 3.467-1.65 5.5 0 2.333.6 4.2 1.8 5.6 1.233 1.4 2.7 2.417 4.4 3.05 1.7.633 3.883 1.267 6.55 1.9 1.733.4 3.1.767 4.1 1.1 1.033.333 1.867.783 2.5 1.35.667.533 1 1.217 1 2.05 0 1.133-.55 2.05-1.65 2.75-1.1.667-2.8 1-5.1 1-2.067 0-4.133-.333-6.2-1s-3.85-1.55-5.35-2.65l-2.75 6.1c1.567 1.2 3.633 2.183 6.2 2.95zm37.735-7h16.25l3.1 7.5h8.5l-15.65-35h-8l-15.6 35h8.3l3.1-7.5zm8.15-19.55l5.55 13.4h-11.1l5.55-13.4zm33.931 7.8v-9.25h18.35v-6.5h-26.45v35h8.1v-12.75h16.2v-6.5h-16.2zm53.434 19.25v-6.5H204.4v-8.1h16.25v-6.3H204.4v-7.6h18.4v-6.5h-26.45v35h27.1zm41.045 0v-35h-8.1v13.8h-15.9v-13.8h-8.1v35h8.1v-14.35h15.9v14.35h8.1zm17.88-1.75c2.934 1.567 6.217 2.35 9.85 2.35 3.634 0 6.9-.783 9.8-2.35 2.9-1.567 5.184-3.717 6.85-6.45 1.667-2.767 2.5-5.867 2.5-9.3 0-3.433-.833-6.517-2.5-9.25-1.666-2.767-3.95-4.933-6.85-6.5-2.9-1.567-6.166-2.35-9.8-2.35-3.633 0-6.916.783-9.85 2.35-2.9 1.567-5.183 3.733-6.85 6.5-1.633 2.733-2.45 5.817-2.45 9.25s.817 6.533 2.45 9.3c1.667 2.733 3.95 4.883 6.85 6.45zm15.45-5.95c-1.666.933-3.533 1.4-5.6 1.4-2.066 0-3.933-.467-5.6-1.4a10.595 10.595 0 01-3.95-4c-.933-1.7-1.4-3.633-1.4-5.8s.467-4.1 1.4-5.8c.967-1.7 2.284-3.017 3.95-3.95 1.667-.967 3.534-1.45 5.6-1.45 2.067 0 3.934.483 5.6 1.45 1.667.933 2.967 2.25 3.9 3.95.967 1.7 1.45 3.633 1.45 5.8s-.483 4.1-1.45 5.8a10.224 10.224 0 01-3.9 4zm25.988 4.15c2.8 2.767 6.7 4.15 11.7 4.15 5 0 8.883-1.383 11.65-4.15 2.8-2.767 4.2-6.717 4.2-11.85v-19.6h-8v19.3c0 3.233-.667 5.617-2 7.15-1.333 1.5-3.267 2.25-5.8 2.25-5.2 0-7.8-3.133-7.8-9.4v-19.3h-8.1v19.6c0 5.133 1.383 9.083 4.15 11.85zm41.504 3.05c2.6.733 5.284 1.1 8.05 1.1 3.2 0 5.917-.483 8.15-1.45 2.234-.967 3.9-2.267 5-3.9 1.134-1.667 1.7-3.5 1.7-5.5 0-2.333-.616-4.183-1.85-5.55a10.647 10.647 0 00-4.35-3c-1.7-.633-3.883-1.267-6.55-1.9-2.566-.567-4.483-1.133-5.75-1.7-1.233-.6-1.85-1.5-1.85-2.7 0-1.2.534-2.167 1.6-2.9 1.1-.733 2.784-1.1 5.05-1.1 3.234 0 6.467.917 9.7 2.75l2.5-6.15c-1.6-1-3.466-1.767-5.6-2.3a26.914 26.914 0 00-6.55-.8c-3.2 0-5.916.483-8.15 1.45-2.2.967-3.85 2.283-4.95 3.95-1.1 1.633-1.65 3.467-1.65 5.5 0 2.333.6 4.2 1.8 5.6 1.234 1.4 2.7 2.417 4.4 3.05 1.7.633 3.884 1.267 6.55 1.9 1.734.4 3.1.767 4.1 1.1 1.034.333 1.867.783 2.5 1.35.667.533 1 1.217 1 2.05 0 1.133-.55 2.05-1.65 2.75-1.1.667-2.8 1-5.1 1-2.066 0-4.133-.333-6.2-1-2.066-.667-3.85-1.55-5.35-2.65l-2.75 6.1c1.567 1.2 3.634 2.183 6.2 2.95zm58.035.5v-6.5h-19.05v-8.1h16.25v-6.3h-16.25v-7.6h18.4v-6.5h-26.45v35h27.1z" fill="#fff"/></svg>